{"title":"A$AP Rocky - Goldie [Explicit] 720p [Sbyky]","uid":9775288,"size":40981684,"categoryP":"video","categoryS":"music_videos","magnet":"?xt=urn:btih:a88f4840804f1a28050b743e88a702650edee6f1&amp;dn=A%24AP+Rocky+-+Goldie+%5BExplicit%5D+720p+%5BSbyky%5D&amp;tr=udp%3A%2F%2Ftracker.openbittorrent.com%3A80&amp;tr=udp%3A%2F%2Fopen.demonii.com%3A1337&amp;tr=udp%3A%2F%2Ftracker.coppersurfer.tk%3A6969&amp;tr=udp%3A%2F%2Fexodus.desync.com%3A6969","seeders":0,"leechers":1,"uploader":"Sbyky","files":1,"time":1395022089,"description":"\n\nGeneral\nComplete name                            : A$AP Rocky - Goldie [Explicit] 720p [Sbyky].MP4\nFormat                                   : MPEG-4\nFormat profile                           : Base Media\nCodec ID                                 : isom\nFile size                                : 39.1 MiB\nDuration                                 : 3mn 15s\nOverall bit rate mode                    : Variable\nOverall bit rate                         : 1 680 Kbps\nEncoded date                             : UTC 2013-12-03 05:05:31\nTagged date                              : UTC 2013-12-03 05:05:31\n\nVideo\nID                                       : 1\nFormat                                   : AVC\nFormat/Info                              : Advanced Video Codec\nFormat profile                           : &lt;a class=&quot;__cf_email__&quot; href=&quot;/cdn-cgi/l/email-protection&quot; data-cfemail=&quot;8bc6eae2e5cbc7b8a5ba&quot;&gt;[email&amp;#160;protected]&lt;/a&gt;&lt;script cf-hash='f9e31' type=&quot;text/javascript&quot;&gt;\n/* &lt;![CDATA[ */!function(){try{var t=&quot;currentScript&quot;in document?document.currentScript:function(){for(var t=document.getElementsByTagName(&quot;script&quot;),e=t.length;e--;)if(t[e].getAttribute(&quot;cf-hash&quot;))return t[e]}();if(t&amp;&amp;t.previousSibling){var e,r,n,i,c=t.previousSibling,a=c.getAttribute(&quot;data-cfemail&quot;);if(a){for(e=&quot;&quot;,r=parseInt(a.substr(0,2),16),n=2;a.length-n;n+=2)i=parseInt(a.substr(n,2),16)^r,e+=String.fromCharCode(i);e=document.createTextNode(e),c.parentNode.replaceChild(e,c)}}}catch(u){}}();/* ]]&gt; */&lt;/script&gt;\nFormat settings, CABAC                   : Yes\nFormat settings, ReFrames                : 3 frames\nCodec ID                                 : avc1\nCodec ID/Info                            : Advanced Video Coding\nDuration                                 : 3mn 15s\nBit rate                                 : 1 552 Kbps\nWidth                                    : 1 280 pixels\nHeight                                   : 720 pixels\nDisplay aspect ratio                     : 16:9\nFrame rate mode                          : Constant\nFrame rate                               : 23.976 fps\nColor space                              : YUV\nChroma subsampling                       : 4:2:0\nBit depth                                : 8 bits\nScan type                                : Progressive\nBits/(Pixel*Frame)                       : 0.070\nStream size                              : 36.1 MiB (92%)\nEncoded date                             : UTC 2013-12-03 05:05:31\nTagged date                              : UTC 2013-12-03 05:05:31\n\nAudio\nID                                       : 2\nFormat                                   : AAC\nFormat/Info                              : Advanced Audio Codec\nFormat profile                           : LC\nCodec ID                                 : 40\nDuration                                 : 3mn 15s\nBit rate mode                            : Variable\nBit rate                                 : 126 Kbps\nChannel(s)                               : 2 channels\nChannel positions                        : Front: L R\nSampling rate                            : 44.1 KHz\nCompression mode                         : Lossy\nStream size                              : 2.92 MiB (7%)\nEncoded date                             : UTC 2013-12-03 05:04:29\nTagged date                              : UTC 2013-12-03 05:04:29\n\nShared By Sbyky\n","torrent":{"xt":"urn:btih:a88f4840804f1a28050b743e88a702650edee6f1","amp;dn":"A%24AP+Rocky+-+Goldie+%5BExplicit%5D+720p+%5BSbyky%5D","amp;tr":["udp%3A%2F%2Ftracker.openbittorrent.com%3A80","udp%3A%2F%2Fopen.demonii.com%3A1337","udp%3A%2F%2Ftracker.coppersurfer.tk%3A6969","udp%3A%2F%2Fexodus.desync.com%3A6969"],"infoHash":"a88f4840804f1a28050b743e88a702650edee6f1","infoHashBuffer":{"type":"Buffer","data":[168,143,72,64,128,79,26,40,5,11,116,62,136,167,2,101,14,222,230,241]},"announce":[],"urlList":[]}}